<svg id="Capa_1" enable-background="new 0 0 512.007 512.007" height="512" viewBox="0 0 512.007 512.007" width="512" xmlns="http://www.w3.org/2000/svg"><g><path d="m409.533 175.674h-266.199c-4.142 0-7.5 3.358-7.5 7.5s3.358 7.5 7.5 7.5h266.198c4.142 0 7.5-3.358 7.5-7.5s-3.357-7.5-7.499-7.5z"/><path d="m409.533 246.951h-266.199c-4.142 0-7.5 3.358-7.5 7.5s3.358 7.5 7.5 7.5h266.198c4.142 0 7.5-3.358 7.5-7.5.001-4.143-3.357-7.5-7.499-7.5z"/><path d="m409.533 318.226h-266.199c-4.142 0-7.5 3.358-7.5 7.5s3.358 7.5 7.5 7.5h266.198c4.142 0 7.5-3.358 7.5-7.5s-3.357-7.5-7.499-7.5z"/><path d="m472.228 154.429c4.142 0 7.5-3.358 7.5-7.5v-61.611c0-11.928-9.704-21.632-21.632-21.632h-123.38l9.341-9.341c11.175 6.503 25.742 4.956 35.276-4.579 11.365-11.365 11.365-29.857 0-41.222-11.391-11.391-29.83-11.394-41.222 0-9.517 9.517-11.059 24.029-4.637 35.171l-19.971 19.971h-218.732c-11.928 0-21.632 9.704-21.632 21.632v20.1h-19.228c-11.928 0-21.632 9.704-21.632 21.632v237.323c0 4.142 3.358 7.5 7.5 7.5s7.5-3.358 7.5-7.5v-237.323c0-3.657 2.975-6.632 6.632-6.632h19.229v328.225c0 11.928 9.704 21.632 21.632 21.632h310.809c1.888 0 3.86-.753 5.303-2.197l12.983-12.983v35.28c0 3.657-2.975 6.632-6.632 6.632h-363.322c-3.658 0-6.635-2.977-6.635-6.635v-90.999c0-4.142-3.358-7.5-7.5-7.5s-7.5 3.358-7.5 7.5v90.999c0 11.929 9.706 21.635 21.635 21.635h363.322c11.928 0 21.632-9.704 21.632-21.632v-50.28l38.664-38.664c1.329-1.328 2.197-3.244 2.197-5.303v-209.199c0-4.142-3.358-7.5-7.5-7.5s-7.5 3.358-7.5 7.5v201.699h-45.016c-11.928 0-21.632 9.704-21.632 21.631v45.016c-13.257 0-296.023 0-303.309 0-3.657 0-6.632-2.975-6.632-6.632 0-24.64 0-348.444 0-363.325 0-3.657 2.975-6.632 6.632-6.632h203.731l-27.373 27.373c-2.929 2.929-2.929 7.678 0 10.606 2.929 2.929 7.678 2.929 10.606 0l37.979-37.979h138.38c3.657 0 6.632 2.975 6.632 6.632v61.611c.002 4.142 3.36 7.5 7.502 7.5zm-123.511-135.278c5.529-5.529 14.479-5.53 20.009 0 5.516 5.517 5.516 14.493 0 20.009-5.517 5.517-14.492 5.517-20.009 0-5.516-5.517-5.516-14.493 0-20.009zm64.363 391.108c0-3.657 2.975-6.631 6.632-6.631h34.409c-4.529 4.529-36.185 36.185-41.041 41.041z"/></g></svg>